<?xml version="1.0" encoding="utf-8"?>
<svg version="1.1" xmlns:xlink="http://www.w3.org/1999/xlink" width="16px" height="17px"
     xmlns="http://www.w3.org/2000/svg">
    <g transform="matrix(1 0 0 1 -329 -8 )">
        <path d="M 0.350222222222222 16.0854  C 1.89866666666667 14.0879  4.74488888888889 12.75  8 12.75  C 11.2551111111111 12.75  14.1022222222222 14.08875  15.6506666666667 16.08625  L 14.0133333333333 16.8266  C 12.7528888888889 15.3986  10.5306666666667 14.45  8 14.45  C 5.46933333333333 14.45  3.24711111111111 15.3986  1.98666666666667 16.8266  L 0.350222222222222 16.0854  Z M 7.80711111111111 0.0042500000000001  L 8 0  C 10.4545988881369 0  12.4444444444444 1.90278981321913  12.4444444444444 4.25  L 12.4444444444444 6.8  C 12.4443069670458 9.07537997908866  10.5701292189971 10.9469985125404  8.19288888888889 11.04575  L 8 11.05  C 5.54540111186314 11.05  3.55555555555555 9.14721018678087  3.55555555555556 6.8  L 3.55555555555555 4.25  C 3.55569303295423 1.97462002091134  5.4298707810029 0.10300148745956  7.80711111111111 0.0042500000000001  Z M 10.6666666666667 4.25  C 10.6666666666667 2.84167388793148  9.47275933288211 1.7  8 1.7  C 6.58794879078316 1.69992478242945  5.42061811332283 2.75245170328012  5.33777777777778 4.1004  L 5.33333333333333 4.25  L 5.33333333333333 6.8  C 5.33333250774631 6.8008191745492  5.33333209495273 6.80163834943224  5.33333209495273 6.80245752436185  C 5.33333209495273 8.21078363643038  6.52723942873728 9.35245752436185  7.9999987616194 9.35245752436185  C 9.41298617803601 9.35245752436185  10.5806887059489 8.29851789572663  10.6622222222222 6.9496  L 10.6666666666667 6.8  L 10.6666666666667 4.25  Z "
              fill-rule="nonzero" fill="#999999" stroke="none" fill-opacity="0.988235294117647"
              transform="matrix(1 0 0 1 329 8 )"/>
    </g>
</svg>