<?xml version="1.0" encoding="utf-8"?>
<svg version="1.1" xmlns:xlink="http://www.w3.org/1999/xlink" width="15px" height="16px"
     xmlns="http://www.w3.org/2000/svg">
    <g transform="matrix(1 0 0 1 -30 -8 )">
        <path d="M 8.33333331099131 9.26315789473684  L 8.33333331099131 14.3157894736842  L 13.3333331769391 14.3157894736842  L 13.3333331769391 6.71831578947368  L 7.5 2.13389473684211  L 1.66666682306086 6.71831578947368  L 1.66666682306086 14.3157894736842  L 6.66666668900869 14.3157894736842  L 6.66666668900869 9.26315789473684  L 8.33333331099131 9.26315789473684  Z M 14.9999997989218 6.30736842105263  L 14.9999997989218 15.1578947368421  C 14.9999997989218 15.6229766314365  14.626903767117 16  14.1666664879305 16  L 0.833333512069549 16  C 0.373096232883049 16  0 15.6229766314365  0 15.1578947368421  L 0 6.30736842105263  C -0.000178338315036697 6.04731982993134  0.118546951248539 5.80177507394808  0.321666859120887 5.64210526315789  L 6.98833334705134 0.402526315789473  C 7.28927800836826 0.165957641321948  7.71072199163174 0.165957641321949  8.01166665294866 0.402526315789473  L 14.6783331408791 5.64210526315789  C 14.8814530487515 5.80177507394808  15.000178338315 6.04731982993134  14.9999997989218 6.30736842105263  Z "
              fill-rule="nonzero" fill="#f68c95" stroke="none" transform="matrix(1 0 0 1 30 8 )"/>
    </g>
</svg>