<?xml version="1.0" encoding="utf-8"?>
<svg version="1.1" xmlns:xlink="http://www.w3.org/1999/xlink" width="16px" height="18px"
     xmlns="http://www.w3.org/2000/svg">
    <g transform="matrix(1 0 0 1 -329 -8 )">
        <path d="M 0.350222222222222 17.0316  C 1.89866666666667 14.9166  4.74488888888889 13.5  8 13.5  C 11.2551111111111 13.5  14.1022222222222 14.9175  15.6506666666667 17.0325  L 14.0133333333333 17.8164  C 12.7528888888889 16.3044  10.5306666666667 15.3  8 15.3  C 5.46933333333333 15.3  3.24711111111111 16.3044  1.98666666666667 17.8164  L 0.350222222222222 17.0316  Z M 7.80711111111111 0.0045000000000001  L 8 0  C 10.4545988881369 0  12.4444444444444 2.01471862576143  12.4444444444444 4.5  L 12.4444444444444 7.2  C 12.4443069670458 9.60922586021153  10.5701292189971 11.5909396015134  8.19288888888889 11.6955  L 8 11.7  C 5.54540111186314 11.7  3.55555555555555 9.68528137423857  3.55555555555556 7.2  L 3.55555555555555 4.5  C 3.55569303295423 2.09077413978847  5.4298707810029 0.109060398486593  7.80711111111111 0.0045000000000001  Z M 10.6666666666667 4.5  C 10.6666666666667 3.00883117545686  9.47275933288211 1.8  8 1.8  C 6.58794879078316 1.79992035786648  5.42061811332283 2.91436062700248  5.33777777777778 4.3416  L 5.33333333333333 4.5  L 5.33333333333333 7.2  C 5.33333250774631 7.20086736128738  5.33333209495273 7.20173472292825  5.33333209495273 7.20260208461843  C 5.33333209495273 8.69377090916158  6.52723942873728 9.90260208461843  7.9999987616194 9.90260208461843  C 9.41298617803601 9.90260208461843  10.5806887059489 8.78666600723996  10.6622222222222 7.3584  L 10.6666666666667 7.2  L 10.6666666666667 4.5  Z "
              fill-rule="nonzero" fill="#f68c95" stroke="none" transform="matrix(1 0 0 1 329 8 )"/>
    </g>
</svg>