<?xml version="1.0" encoding="utf-8"?>
<svg version="1.1" xmlns:xlink="http://www.w3.org/1999/xlink" width="15px" height="15px"
     xmlns="http://www.w3.org/2000/svg">
    <g transform="matrix(1 0 0 1 -105 -8 )">
        <path d="M 15 5.25  C 15 6.0105  14.7165000623816 6.705  14.2500001650307 7.2345  L 14.2500001650307 14.25  C 14.2500001650307 14.6642135623731  13.9142138012905 15  13.5000003300614 15  L 1.50000297055232 15  C 1.08578949932316 15  0.750003135583008 14.6642135623731  0.750003135583008 14.25  L 0.750003135583008 7.2345  C 0.265740278718566 6.68697022105091  -0.00108245558970256 5.98095711071946  0 5.25  L 0 0.75  C 0 0.335786437626905  0.335789664353843 0  0.750003135583008 0  L 14.2500001650307 0  C 14.6642136362599 0  15 0.335786437626905  15 0.75  L 15 5.25  Z M 12.7500004950921 13.5  L 12.7500004950921 8.1555  C 11.6563873631397 8.4364539301412  10.4975782722426 8.08069946095526  9.75000115521479 7.2345  C 9.18106032589134 7.88098382019934  8.36118326248322 8.25102174957436  7.50000165030684 8.25  C 6.63882003813047 8.25102174957436  5.81894297472235 7.88098382019934  5.2500021453989 7.2345  C 4.50408664491955 8.08327372819316  3.34368501579699 8.4395171067219  2.25000280552164 8.1555  L 2.25000280552164 13.5  L 12.7500004950921 13.5  Z M 9.00000132024548 5.25  C 9.00000132024548 4.83578643762691  9.33578768398563 4.5  9.75000115521479 4.5  C 10.164214626444 4.5  10.5000009901841 4.83578643762691  10.5000009901841 5.25  C 10.5000009901841 6.07842712474619  11.1715737176644 6.75  12.0000006601227 6.75  C 12.8284276025811 6.75  13.5000003300614 6.07842712474619  13.5000003300614 5.25  L 13.5000003300614 1.5  L 1.50000297055232 1.5  L 1.50000297055232 5.25  C 1.50000297055232 6.07842712474619  2.17157569803263 6.75  3.00000264049095 6.75  C 3.82842958294928 6.75  4.50000231042958 6.07842712474619  4.50000231042958 5.25  C 4.50000231042958 4.83578643762691  4.83578867416974 4.5  5.2500021453989 4.5  C 5.66421561662807 4.5  6.00000198036822 4.83578643762691  6.00000198036822 5.25  C 6.00000198036822 6.07842712474619  6.67157470784852 6.75  7.50000165030685 6.75  C 8.32842859276517 6.75  9.00000132024548 6.07842712474619  9.00000132024548 5.25  Z "
              fill-rule="nonzero" fill="#999999" stroke="none" fill-opacity="0.988235294117647"
              transform="matrix(1 0 0 1 105 8 )"/>
    </g>
</svg>